<?xml version="1.0" encoding="UTF-8"?>
<svg id="Layer_2" data-name="Layer 2" xmlns="http://www.w3.org/2000/svg" viewBox="0 0 16 16">
  <defs>
    <style>
      .cls-1 {
        fill: #181f28;
      }

      .cls-2 {
        fill: #c59e67;
      }

      .cls-3 {
        fill: #131a22;
      }
    </style>
  </defs>
  <g id="Layer_2-2" data-name="Layer 2">
    <g>
      <path class="cls-1" d="M8,0V8H0V.85C0,.38,.38,0,.85,0h7.15Z"/>
      <path class="cls-1" d="M16,.85V8H8V0h7.15c.47,0,.85,.38,.85,.85Z"/>
      <path class="cls-2" d="M16,8v7.15c0,.47-.38,.85-.85,.85h-7.15V8h8Z"/>
      <path class="cls-1" d="M8,8v8H.85c-.47,0-.85-.38-.85-.85V8H8Z"/>
      <polygon class="cls-2" points="5.44 3.7 5.44 4.3 4.3 4.3 4.3 5.45 3.7 5.45 3.7 4.3 2.56 4.3 2.56 3.7 3.7 3.7 3.7 2.55 4.3 2.55 4.3 3.7 5.44 3.7"/>
      <polygon class="cls-2" points="4.81 10.77 5.23 11.19 4.42 12 5.23 12.81 4.81 13.23 4 12.42 3.19 13.23 2.77 12.81 3.58 12 2.77 11.19 3.19 10.77 4 11.58 4.81 10.77"/>
      <rect class="cls-2" x="11.7" y="2.59" width=".59" height="2.81" transform="translate(8 16) rotate(-90)"/>
      <g>
        <rect class="cls-3" x="10.56" y="11.06" width="2.88" height=".59"/>
        <rect class="cls-3" x="10.56" y="12.35" width="2.88" height=".59"/>
      </g>
    </g>
  </g>
</svg>